{
  "accessors": [
    {
      "bufferView": 2,
      "componentType": 5126,
      "count": 165,
      "max": [
        94.684677124023438,
        342.82830810546875,
        105.35106658935547
      ],
      "min": [
        -94.688407897949219,
        -162.40719604492188,
        -105.35017395019531
      ],
      "type": "VEC3"
    },
    {
      "bufferView": 2,
      "byteOffset": 1980,
      "componentType": 5126,
      "count": 165,
      "max": [
        0.97267681360244751,
        0.63458257913589478,
        0.99968516826629639
      ],
      "min": [
        -0.97267705202102661,
        -0.99999994039535522,
        -0.99968516826629639
      ],
      "type": "VEC3"
    },
    {
      "bufferView": 3,
      "componentType": 5126,
      "count": 165,
      "max": [
        0.99999094009399414,
        0.59206461906433105,
        0.99859100580215454,
        1
      ],
      "min": [
        -0.99991816282272339,
        -0.54457211494445801,
        -0.99805921316146851,
        -1
      ],
      "type": "VEC4"
    },
    {
      "bufferView": 1,
      "componentType": 5126,
      "count": 165,
      "max": [
        0.69711571931838989,
        0.99611401557922363
      ],
      "min": [
        -0.43615269660949707,
        0.082427442073822021
      ],
      "type": "VEC2"
    },
    {
      "bufferView": 0,
      "componentType": 5125,
      "count": 696,
      "max": [
        164
      ],
      "min": [
        0
      ],
      "type": "SCALAR"
    },
    {
      "bufferView": 4,
      "componentType": 5126,
      "count": 1,
      "max": [
        1,
        0,
        0,
        0,
        0,
        1,
        0,
        0,
        0,
        0,
        1,
        0,
        0,
        0,
        0,
        1
      ],
      "min": [
        1,
        0,
        0,
        0,
        0,
        1,
        0,
        0,
        0,
        0,
        1,
        0,
        0,
        0,
        0,
        1
      ],
      "type": "MAT4"
    }
  ],
  "asset": {
    "extras": {
      "author": "BytesCrafter (https://sketchfab.com/BytesCrafter)",
      "license": "CC-BY-4.0 (http://creativecommons.org/licenses/by/4.0/)",
      "source": "https://sketchfab.com/models/fc8833b840a24e7eaa33a222e8dddd74",
      "title": "Tower Gloom"
    },
    "generator": "Sketchfab-3.18.7",
    "version": "2.0"
  },
  "bufferViews": [
    {
      "buffer": 0,
      "byteLength": 2784,
      "byteOffset": 0,
      "name": "floatBufferViews",
      "target": 34963
    },
    {
      "buffer": 0,
      "byteLength": 1320,
      "byteOffset": 2784,
      "byteStride": 8,
      "name": "floatBufferViews",
      "target": 34962
    },
    {
      "buffer": 0,
      "byteLength": 3960,
      "byteOffset": 4104,
      "byteStride": 12,
      "name": "floatBufferViews",
      "target": 34962
    },
    {
      "buffer": 0,
      "byteLength": 2640,
      "byteOffset": 8064,
      "byteStride": 16,
      "name": "floatBufferViews",
      "target": 34962
    },
    {
      "buffer": 0,
      "byteLength": 64,
      "byteOffset": 10704,
      "byteStride": 64,
      "name": "floatBufferViews"
    }
  ],
  "buffers": [
    {
      "byteLength": 10768,
      "uri": "scene.bin"
    }
  ],
  "images": [
    {
      "uri": "textures/Standard_51_baseColor.png"
    }
  ],
  "materials": [
    {
      "doubleSided": true,
      "emissiveFactor": [
        0,
        0,
        0
      ],
      "name": "Standard_51",
      "pbrMetallicRoughness": {
        "baseColorFactor": [
          1,
          1,
          1,
          1
        ],
        "baseColorTexture": {
          "index": 0,
          "texCoord": 0
        },
        "metallicFactor": 0,
        "roughnessFactor": 0.59999999999999998
      }
    }
  ],
  "meshes": [
    {
      "primitives": [
        {
          "attributes": {
            "NORMAL": 1,
            "POSITION": 0,
            "TANGENT": 2,
            "TEXCOORD_0": 3
          },
          "indices": 4,
          "material": 0,
          "mode": 4
        }
      ]
    }
  ],
  "nodes": [
    {
      "children": [
        1
      ],
      "name": "RootNode (gltf orientation matrix)",
      "rotation": [
        -0.70710678118654746,
        -0,
        -0,
        0.70710678118654757
      ]
    },
    {
      "children": [
        2
      ],
      "name": "RootNode (model correction matrix)"
    },
    {
      "children": [
        3
      ],
      "matrix": [
        1,
        0,
        0,
        0,
        0,
        0,
        1,
        0,
        0,
        -1,
        0,
        0,
        0,
        0,
        0,
        1
      ],
      "name": "555642db2b564fbcb927ce5a2e2f40e4.fbx"
    },
    {
      "children": [
        4
      ],
      "name": "RootNode"
    },
    {
      "children": [
        5
      ],
      "matrix": [
        0.99862953584347269,
        6.9388939039072284e-18,
        -0.052335935465511629,
        0,
        -0.052335935465511629,
        1.1102230246251565e-16,
        -0.99862953584347269,
        0,
        6.9388939039072284e-18,
        1,
        1.1102230246251565e-16,
        0,
        0,
        347.1094970703125,
        0,
        1
      ],
      "name": "Pillar Of Gloom"
    },
    {
      "children": [
        6,
        7
      ],
      "name": ""
    },
    {
      "name": "_rootJoint"
    },
    {
      "children": [
        8
      ],
      "matrix": [
        0.99999991282749834,
        8.525450141585577e-17,
        3.874942593886252e-08,
        0,
        3.8749425938862494e-08,
        -4.3711385969386652e-08,
        -0.99999991282749756,
        0,
        1.6085367391229355e-15,
        0.99999990013334661,
        -4.3711385414507604e-08,
        0,
        6.95778720682938e-05,
        -1.1532107748735143e-05,
        -0.00011798845616795006,
        1
      ],
      "name": ""
    },
    {
      "mesh": 0,
      "name": ""
    }
  ],
  "samplers": [
    {
      "magFilter": 9729,
      "minFilter": 9987,
      "wrapS": 10497,
      "wrapT": 10497
    }
  ],
  "scene": 0,
  "scenes": [
    {
      "name": "OSG_Scene",
      "nodes": [
        0
      ]
    }
  ],
  "skins": [
    {
      "inverseBindMatrices": 5,
      "joints": [
        6
      ],
      "skeleton": 6
    }
  ],
  "textures": [
    {
      "sampler": 0,
      "source": 0
    }
  ]
}

